<svg width="158" height="48" viewBox="0 0 158 48" fill="none" xmlns="http://www.w3.org/2000/svg">
<g filter="url(#filter0_d_38318_3447)">
<rect x="2" y="1" width="153.5" height="44" rx="8" fill="#F2F2F7"/>
<rect x="2.5" y="1.5" width="152.5" height="43" rx="7.5" stroke="#D1D6DB"/>
<path d="M58.5928 28.1449C58.2601 28.9135 57.8663 29.6211 57.41 30.2715C56.7881 31.1583 56.2788 31.7721 55.8864 32.113C55.278 32.6724 54.6262 32.959 53.9282 32.9753C53.4271 32.9753 52.8228 32.8327 52.1193 32.5434C51.4136 32.2555 50.765 32.113 50.172 32.113C49.55 32.113 48.883 32.2555 48.1695 32.5434C47.4549 32.8327 46.8793 32.9834 46.4392 32.9984C45.7698 33.0269 45.1026 32.7322 44.4367 32.113C44.0116 31.7422 43.48 31.1067 42.8431 30.2063C42.1598 29.2449 41.598 28.13 41.1578 26.8589C40.6865 25.486 40.4502 24.1565 40.4502 22.8694C40.4502 21.3951 40.7688 20.1235 41.4069 19.0578C41.9084 18.2019 42.5756 17.5267 43.4106 17.0311C44.2456 16.5354 45.1479 16.2828 46.1195 16.2666C46.6511 16.2666 47.3483 16.4311 48.2147 16.7543C49.0787 17.0786 49.6334 17.243 49.8766 17.243C50.0585 17.243 50.6747 17.0507 51.7194 16.6674C52.7073 16.3119 53.5411 16.1647 54.2242 16.2226C56.0751 16.372 57.4657 17.1017 58.3905 18.4162C56.7351 19.4192 55.9162 20.824 55.9325 22.6262C55.9475 24.03 56.4567 25.1981 57.4576 26.1256C57.9111 26.5561 58.4176 26.8888 58.9812 27.1251C58.859 27.4795 58.73 27.819 58.5928 28.1449ZM54.3478 11.4404C54.3478 12.5406 53.9458 13.5679 53.1446 14.5188C52.1777 15.6492 51.0082 16.3024 49.74 16.1993C49.7238 16.0673 49.7145 15.9284 49.7145 15.7824C49.7145 14.7261 50.1743 13.5958 50.9908 12.6715C51.3985 12.2036 51.917 11.8145 52.5457 11.5041C53.1731 11.1983 53.7666 11.0292 54.3247 11.0002C54.341 11.1473 54.3478 11.2944 54.3478 11.4404V11.4404Z" fill="black"/>
<path d="M76.392 29H74.142L78.2386 17.3636H80.8409L84.9432 29H82.6932L79.5852 19.75H79.4943L76.392 29ZM76.4659 24.4375H82.6023V26.1307H76.4659V24.4375ZM86.3849 32.2727V20.2727H88.4077V21.7159H88.527C88.633 21.5038 88.7827 21.2784 88.9759 21.0398C89.169 20.7973 89.4304 20.5909 89.7599 20.4205C90.0895 20.2462 90.5099 20.1591 91.0213 20.1591C91.6955 20.1591 92.3035 20.3314 92.8452 20.6761C93.3906 21.017 93.8224 21.5227 94.1406 22.1932C94.4626 22.8598 94.6236 23.678 94.6236 24.6477C94.6236 25.6061 94.4664 26.4205 94.152 27.0909C93.8376 27.7614 93.4096 28.2727 92.8679 28.625C92.3262 28.9773 91.7126 29.1534 91.027 29.1534C90.527 29.1534 90.1122 29.0701 89.7827 28.9034C89.4531 28.7367 89.188 28.536 88.9872 28.3011C88.7902 28.0625 88.6368 27.8371 88.527 27.625H88.4418V32.2727H86.3849ZM88.402 24.6364C88.402 25.2008 88.4815 25.6951 88.6406 26.1193C88.8035 26.5436 89.0365 26.875 89.3395 27.1136C89.6463 27.3485 90.0175 27.4659 90.4531 27.4659C90.9077 27.4659 91.2884 27.3447 91.5952 27.1023C91.902 26.8561 92.133 26.5208 92.2884 26.0966C92.4474 25.6686 92.527 25.1818 92.527 24.6364C92.527 24.0947 92.4493 23.6136 92.294 23.1932C92.1387 22.7727 91.9077 22.4432 91.6009 22.2045C91.294 21.9659 90.9115 21.8466 90.4531 21.8466C90.0137 21.8466 89.6406 21.9621 89.3338 22.1932C89.027 22.4242 88.794 22.7481 88.6349 23.1648C88.4796 23.5814 88.402 24.072 88.402 24.6364ZM96.3849 32.2727V20.2727H98.4077V21.7159H98.527C98.633 21.5038 98.7827 21.2784 98.9759 21.0398C99.169 20.7973 99.4304 20.5909 99.7599 20.4205C100.089 20.2462 100.51 20.1591 101.021 20.1591C101.696 20.1591 102.304 20.3314 102.845 20.6761C103.391 21.017 103.822 21.5227 104.141 22.1932C104.463 22.8598 104.624 23.678 104.624 24.6477C104.624 25.6061 104.466 26.4205 104.152 27.0909C103.838 27.7614 103.41 28.2727 102.868 28.625C102.326 28.9773 101.713 29.1534 101.027 29.1534C100.527 29.1534 100.112 29.0701 99.7827 28.9034C99.4531 28.7367 99.188 28.536 98.9872 28.3011C98.7902 28.0625 98.6368 27.8371 98.527 27.625H98.4418V32.2727H96.3849ZM98.402 24.6364C98.402 25.2008 98.4815 25.6951 98.6406 26.1193C98.8035 26.5436 99.0365 26.875 99.3395 27.1136C99.6463 27.3485 100.018 27.4659 100.453 27.4659C100.908 27.4659 101.288 27.3447 101.595 27.1023C101.902 26.8561 102.133 26.5208 102.288 26.0966C102.447 25.6686 102.527 25.1818 102.527 24.6364C102.527 24.0947 102.449 23.6136 102.294 23.1932C102.139 22.7727 101.908 22.4432 101.601 22.2045C101.294 21.9659 100.911 21.8466 100.453 21.8466C100.014 21.8466 99.6406 21.9621 99.3338 22.1932C99.027 22.4242 98.794 22.7481 98.6349 23.1648C98.4796 23.5814 98.402 24.072 98.402 24.6364ZM108.442 17.3636V29H106.385V17.3636H108.442ZM114.42 29.1705C113.545 29.1705 112.79 28.9886 112.153 28.625C111.521 28.2576 111.034 27.7386 110.693 27.0682C110.352 26.3939 110.182 25.6004 110.182 24.6875C110.182 23.7898 110.352 23.0019 110.693 22.3239C111.038 21.642 111.519 21.1117 112.136 20.733C112.754 20.3504 113.479 20.1591 114.312 20.1591C114.85 20.1591 115.358 20.2462 115.835 20.4205C116.316 20.5909 116.741 20.8561 117.108 21.2159C117.479 21.5758 117.771 22.0341 117.983 22.5909C118.195 23.1439 118.301 23.803 118.301 24.5682V25.1989H111.148V23.8125H116.33C116.326 23.4186 116.241 23.0682 116.074 22.7614C115.907 22.4508 115.674 22.2064 115.375 22.0284C115.08 21.8504 114.735 21.7614 114.341 21.7614C113.92 21.7614 113.551 21.8636 113.233 22.0682C112.915 22.2689 112.667 22.5341 112.489 22.8636C112.314 23.1894 112.225 23.5473 112.222 23.9375V25.1477C112.222 25.6553 112.314 26.0909 112.5 26.4545C112.686 26.8144 112.945 27.0909 113.278 27.2841C113.612 27.4735 114.002 27.5682 114.449 27.5682C114.748 27.5682 115.019 27.5265 115.261 27.4432C115.504 27.3561 115.714 27.2292 115.892 27.0625C116.07 26.8958 116.205 26.6894 116.295 26.4432L118.216 26.6591C118.095 27.1667 117.864 27.6098 117.523 27.9886C117.186 28.3636 116.754 28.6553 116.227 28.8636C115.701 29.0682 115.098 29.1705 114.42 29.1705Z" fill="#414651"/>
</g>
<defs>
<filter id="filter0_d_38318_3447" x="0" y="0" width="157.5" height="48" filterUnits="userSpaceOnUse" color-interpolation-filters="sRGB">
<feFlood flood-opacity="0" result="BackgroundImageFix"/>
<feColorMatrix in="SourceAlpha" type="matrix" values="0 0 0 0 0 0 0 0 0 0 0 0 0 0 0 0 0 0 127 0" result="hardAlpha"/>
<feOffset dy="1"/>
<feGaussianBlur stdDeviation="1"/>
<feColorMatrix type="matrix" values="0 0 0 0 0.0392157 0 0 0 0 0.0496732 0 0 0 0 0.0705882 0 0 0 0.05 0"/>
<feBlend mode="normal" in2="BackgroundImageFix" result="effect1_dropShadow_38318_3447"/>
<feBlend mode="normal" in="SourceGraphic" in2="effect1_dropShadow_38318_3447" result="shape"/>
</filter>
</defs>
</svg>
