<svg width="158" height="48" viewBox="0 0 158 48" fill="none" xmlns="http://www.w3.org/2000/svg">
<g filter="url(#filter0_d_38318_3446)">
<rect x="2" y="1" width="153.5" height="44" rx="8" fill="#F2F2F7"/>
<rect x="2.5" y="1.5" width="152.5" height="43" rx="7.5" stroke="#D1D6DB"/>
<g clip-path="url(#clip0_38318_3446)">
<path d="M56.5163 23.2764C56.5163 22.4607 56.4501 21.6406 56.309 20.8381H44.9902V25.4591H51.472C51.203 26.9494 50.3388 28.2678 49.0733 29.1056V32.1039H52.9403C55.2111 30.0139 56.5163 26.9274 56.5163 23.2764Z" fill="#4285F4"/>
<path d="M44.99 35.0008C48.2264 35.0008 50.9558 33.9382 52.9444 32.1039L49.0774 29.1055C48.0016 29.8375 46.6126 30.252 44.9944 30.252C41.8638 30.252 39.2093 28.1399 38.2569 25.3003H34.2665V28.3912C36.3036 32.4434 40.4528 35.0008 44.99 35.0008Z" fill="#34A853"/>
<path d="M38.2528 25.3003C37.7501 23.8099 37.7501 22.1961 38.2528 20.7057V17.6148H34.2667C32.5647 21.0056 32.5647 25.0004 34.2667 28.3912L38.2528 25.3003Z" fill="#FBBC04"/>
<path d="M44.99 15.7497C46.7008 15.7232 48.3543 16.367 49.5933 17.5487L53.0194 14.1226C50.85 12.0855 47.9707 10.9655 44.99 11.0008C40.4528 11.0008 36.3036 13.5582 34.2665 17.6148L38.2525 20.7058C39.2005 17.8617 41.8594 15.7497 44.99 15.7497Z" fill="#EA4335"/>
</g>
<path d="M77.6932 21.0795C77.5985 20.7727 77.4678 20.4981 77.3011 20.2557C77.1383 20.0095 76.9413 19.7992 76.7102 19.625C76.483 19.4508 76.2216 19.3201 75.9261 19.233C75.6307 19.142 75.3087 19.0966 74.9602 19.0966C74.3352 19.0966 73.7784 19.2538 73.2898 19.5682C72.8011 19.8826 72.4167 20.3447 72.1364 20.9545C71.8598 21.5606 71.7216 22.2992 71.7216 23.1705C71.7216 24.0492 71.8598 24.7936 72.1364 25.4034C72.4129 26.0133 72.7973 26.4773 73.2898 26.7955C73.7822 27.1098 74.3542 27.267 75.0057 27.267C75.5966 27.267 76.108 27.1534 76.5398 26.9261C76.9754 26.6989 77.3106 26.3769 77.5455 25.9602C77.7803 25.5398 77.8977 25.0473 77.8977 24.483L78.375 24.5568H75.2159V22.9091H79.9375V24.3068C79.9375 25.303 79.7254 26.1648 79.3011 26.892C78.8769 27.6193 78.2936 28.1799 77.5511 28.5739C76.8087 28.964 75.9564 29.1591 74.9943 29.1591C73.9223 29.1591 72.9811 28.9186 72.1705 28.4375C71.3636 27.9527 70.733 27.2652 70.2784 26.375C69.8277 25.4811 69.6023 24.4205 69.6023 23.1932C69.6023 22.2538 69.7348 21.4148 70 20.6761C70.2689 19.9375 70.6439 19.3106 71.125 18.7955C71.6061 18.2765 72.1705 17.8826 72.8182 17.6136C73.4659 17.3409 74.1705 17.2045 74.9318 17.2045C75.5758 17.2045 76.1761 17.2992 76.733 17.4886C77.2898 17.6742 77.7841 17.9394 78.2159 18.2841C78.6515 18.6288 79.0095 19.0379 79.2898 19.5114C79.5701 19.9848 79.7538 20.5076 79.8409 21.0795H77.6932ZM85.6918 29.1705C84.8395 29.1705 84.1009 28.983 83.4759 28.608C82.8509 28.233 82.366 27.7083 82.0213 27.0341C81.6804 26.3598 81.5099 25.572 81.5099 24.6705C81.5099 23.7689 81.6804 22.9792 82.0213 22.3011C82.366 21.6231 82.8509 21.0966 83.4759 20.7216C84.1009 20.3466 84.8395 20.1591 85.6918 20.1591C86.544 20.1591 87.2827 20.3466 87.9077 20.7216C88.5327 21.0966 89.0156 21.6231 89.3565 22.3011C89.7012 22.9792 89.8736 23.7689 89.8736 24.6705C89.8736 25.572 89.7012 26.3598 89.3565 27.0341C89.0156 27.7083 88.5327 28.233 87.9077 28.608C87.2827 28.983 86.544 29.1705 85.6918 29.1705ZM85.7031 27.5227C86.1652 27.5227 86.5516 27.3958 86.8622 27.142C87.1728 26.8845 87.4039 26.5398 87.5554 26.108C87.7107 25.6761 87.7884 25.1951 87.7884 24.6648C87.7884 24.1307 87.7107 23.6477 87.5554 23.2159C87.4039 22.7803 87.1728 22.4337 86.8622 22.1761C86.5516 21.9186 86.1652 21.7898 85.7031 21.7898C85.2296 21.7898 84.8357 21.9186 84.5213 22.1761C84.2107 22.4337 83.9777 22.7803 83.8224 23.2159C83.6709 23.6477 83.5952 24.1307 83.5952 24.6648C83.5952 25.1951 83.6709 25.6761 83.8224 26.108C83.9777 26.5398 84.2107 26.8845 84.5213 27.142C84.8357 27.3958 85.2296 27.5227 85.7031 27.5227ZM95.4261 29.1705C94.5739 29.1705 93.8352 28.983 93.2102 28.608C92.5852 28.233 92.1004 27.7083 91.7557 27.0341C91.4148 26.3598 91.2443 25.572 91.2443 24.6705C91.2443 23.7689 91.4148 22.9792 91.7557 22.3011C92.1004 21.6231 92.5852 21.0966 93.2102 20.7216C93.8352 20.3466 94.5739 20.1591 95.4261 20.1591C96.2784 20.1591 97.017 20.3466 97.642 20.7216C98.267 21.0966 98.75 21.6231 99.0909 22.3011C99.4356 22.9792 99.608 23.7689 99.608 24.6705C99.608 25.572 99.4356 26.3598 99.0909 27.0341C98.75 27.7083 98.267 28.233 97.642 28.608C97.017 28.983 96.2784 29.1705 95.4261 29.1705ZM95.4375 27.5227C95.8996 27.5227 96.286 27.3958 96.5966 27.142C96.9072 26.8845 97.1383 26.5398 97.2898 26.108C97.4451 25.6761 97.5227 25.1951 97.5227 24.6648C97.5227 24.1307 97.4451 23.6477 97.2898 23.2159C97.1383 22.7803 96.9072 22.4337 96.5966 22.1761C96.286 21.9186 95.8996 21.7898 95.4375 21.7898C94.964 21.7898 94.5701 21.9186 94.2557 22.1761C93.9451 22.4337 93.7121 22.7803 93.5568 23.2159C93.4053 23.6477 93.3295 24.1307 93.3295 24.6648C93.3295 25.1951 93.4053 25.6761 93.5568 26.108C93.7121 26.5398 93.9451 26.8845 94.2557 27.142C94.5701 27.3958 94.964 27.5227 95.4375 27.5227ZM105.149 32.4545C104.411 32.4545 103.776 32.3542 103.246 32.1534C102.715 31.9564 102.289 31.6913 101.967 31.358C101.645 31.0246 101.422 30.6553 101.297 30.25L103.149 29.8011C103.232 29.9716 103.354 30.1402 103.513 30.3068C103.672 30.4773 103.886 30.6174 104.155 30.7273C104.428 30.8409 104.77 30.8977 105.183 30.8977C105.767 30.8977 106.25 30.7557 106.632 30.4716C107.015 30.1913 107.206 29.7292 107.206 29.0852V27.4318H107.104C106.998 27.6439 106.842 27.8617 106.638 28.0852C106.437 28.3087 106.17 28.4962 105.837 28.6477C105.507 28.7992 105.092 28.875 104.592 28.875C103.922 28.875 103.314 28.7178 102.768 28.4034C102.227 28.0852 101.795 27.6117 101.473 26.983C101.155 26.3504 100.996 25.5587 100.996 24.608C100.996 23.6496 101.155 22.8409 101.473 22.1818C101.795 21.5189 102.229 21.017 102.774 20.6761C103.32 20.3314 103.928 20.1591 104.598 20.1591C105.109 20.1591 105.53 20.2462 105.859 20.4205C106.193 20.5909 106.458 20.7973 106.655 21.0398C106.852 21.2784 107.001 21.5038 107.104 21.7159H107.217V20.2727H109.246V29.142C109.246 29.8883 109.068 30.5057 108.712 30.9943C108.356 31.483 107.869 31.8485 107.251 32.0909C106.634 32.3333 105.933 32.4545 105.149 32.4545ZM105.166 27.2614C105.602 27.2614 105.973 27.1553 106.28 26.9432C106.587 26.7311 106.82 26.4261 106.979 26.0284C107.138 25.6307 107.217 25.1534 107.217 24.5966C107.217 24.0473 107.138 23.5663 106.979 23.1534C106.823 22.7405 106.592 22.4205 106.286 22.1932C105.982 21.9621 105.609 21.8466 105.166 21.8466C104.708 21.8466 104.325 21.9659 104.018 22.2045C103.712 22.4432 103.481 22.7708 103.325 23.1875C103.17 23.6004 103.092 24.0701 103.092 24.5966C103.092 25.1307 103.17 25.5985 103.325 26C103.484 26.3977 103.717 26.7083 104.024 26.9318C104.335 27.1515 104.715 27.2614 105.166 27.2614ZM113.411 17.3636V29H111.354V17.3636H113.411ZM119.389 29.1705C118.514 29.1705 117.759 28.9886 117.122 28.625C116.49 28.2576 116.003 27.7386 115.662 27.0682C115.321 26.3939 115.151 25.6004 115.151 24.6875C115.151 23.7898 115.321 23.0019 115.662 22.3239C116.007 21.642 116.488 21.1117 117.105 20.733C117.723 20.3504 118.448 20.1591 119.281 20.1591C119.819 20.1591 120.327 20.2462 120.804 20.4205C121.285 20.5909 121.709 20.8561 122.077 21.2159C122.448 21.5758 122.74 22.0341 122.952 22.5909C123.164 23.1439 123.27 23.803 123.27 24.5682V25.1989H116.116V23.8125H121.298C121.295 23.4186 121.209 23.0682 121.043 22.7614C120.876 22.4508 120.643 22.2064 120.344 22.0284C120.048 21.8504 119.704 21.7614 119.31 21.7614C118.889 21.7614 118.52 21.8636 118.202 22.0682C117.884 22.2689 117.635 22.5341 117.457 22.8636C117.283 23.1894 117.194 23.5473 117.19 23.9375V25.1477C117.19 25.6553 117.283 26.0909 117.469 26.4545C117.654 26.8144 117.914 27.0909 118.247 27.2841C118.58 27.4735 118.971 27.5682 119.418 27.5682C119.717 27.5682 119.988 27.5265 120.23 27.4432C120.473 27.3561 120.683 27.2292 120.861 27.0625C121.039 26.8958 121.173 26.6894 121.264 26.4432L123.185 26.6591C123.063 27.1667 122.832 27.6098 122.491 27.9886C122.154 28.3636 121.723 28.6553 121.196 28.8636C120.67 29.0682 120.067 29.1705 119.389 29.1705Z" fill="#414651"/>
</g>
<defs>
<filter id="filter0_d_38318_3446" x="0" y="0" width="157.5" height="48" filterUnits="userSpaceOnUse" color-interpolation-filters="sRGB">
<feFlood flood-opacity="0" result="BackgroundImageFix"/>
<feColorMatrix in="SourceAlpha" type="matrix" values="0 0 0 0 0 0 0 0 0 0 0 0 0 0 0 0 0 0 127 0" result="hardAlpha"/>
<feOffset dy="1"/>
<feGaussianBlur stdDeviation="1"/>
<feColorMatrix type="matrix" values="0 0 0 0 0.0392157 0 0 0 0 0.0496732 0 0 0 0 0.0705882 0 0 0 0.05 0"/>
<feBlend mode="normal" in2="BackgroundImageFix" result="effect1_dropShadow_38318_3446"/>
<feBlend mode="normal" in="SourceGraphic" in2="effect1_dropShadow_38318_3446" result="shape"/>
</filter>
<clipPath id="clip0_38318_3446">
<rect width="24" height="24" fill="white" transform="translate(32.75 11)"/>
</clipPath>
</defs>
</svg>
